<svg version="1.1" xmlns="http://www.w3.org/2000/svg" xmlns:xlink="http://www.w3.org/1999/xlink" width="200.000000pt" height="200.000000pt" viewBox="0,0,256,256"><g fill="#2194be" fill-rule="nonzero" stroke="none" stroke-width="1" stroke-linecap="butt" stroke-linejoin="miter" stroke-miterlimit="10" stroke-dasharray="" stroke-dashoffset="0" font-family="none" font-weight="none" font-size="none" text-anchor="none" style="mix-blend-mode: normal"><g transform=""><g><g transform="translate(-0.64,-3.84) scale(1.28,1.28)"><g transform="translate(0,200) scale(0.1,-0.1)"><path d="M125,1653c-34,-8 -81,-50 -99,-86c-36,-77 -4,-165 74,-204c55,-28 82,-29 136,-2c170,82 73,336 -111,292z"></path><path d="M520,1500v-160h740h740v160v160h-740h-740z"></path><path d="M115,1105c-100,-36 -136,-165 -68,-246c50,-59 124,-74 193,-39c97,49 115,172 37,248c-29,28 -82,53 -112,52c-5,-1 -28,-7 -50,-15z"></path><path d="M520,960v-160h530h530v160v160h-530h-530z"></path><path d="M134,600c-69,-16 -124,-85 -124,-156c0,-131 168,-201 264,-111c100,95 50,242 -94,272c-8,1 -29,-1 -46,-5z"></path><path d="M520,440v-160h260h260v160v160h-260h-260z"></path></g></g></g></g></g></svg>