<?xml version="1.0" encoding="UTF-8"?>
<svg xmlns="http://www.w3.org/2000/svg" xmlns:xlink="http://www.w3.org/1999/xlink" width="35px" height="37px" viewBox="0 0 35 37" version="1.1">
<g id="surface1">
<path style=" stroke:none;fill-rule:nonzero;fill:rgb(87.058824%,86.27451%,86.27451%);fill-opacity:1;" d="M 8.964844 5.792969 C 8.917969 5.828125 8.847656 5.890625 8.820312 5.929688 L 8.761719 6.003906 L 8.753906 11.492188 C 8.753906 14.507812 8.753906 17.015625 8.761719 17.0625 C 8.785156 17.175781 8.898438 17.308594 9.03125 17.367188 C 9.136719 17.414062 9.445312 17.417969 17.5 17.417969 C 25.554688 17.417969 25.863281 17.414062 25.96875 17.367188 C 26.097656 17.308594 26.152344 17.25 26.210938 17.117188 C 26.246094 17.03125 26.25 16.414062 26.25 11.554688 L 26.25 6.089844 L 26.191406 5.972656 C 26.15625 5.90625 26.089844 5.828125 26.035156 5.796875 L 25.945312 5.734375 L 9.054688 5.734375 Z M 24.527344 6.726562 C 24.460938 6.789062 23.976562 7.234375 23.449219 7.71875 C 22.925781 8.199219 22.402344 8.679688 22.292969 8.785156 C 22.179688 8.886719 21.894531 9.152344 21.660156 9.371094 C 19.695312 11.171875 18.953125 11.863281 18.949219 11.882812 C 18.949219 11.898438 18.941406 11.917969 18.941406 11.933594 C 18.9375 11.949219 18.933594 11.980469 18.929688 12 C 18.929688 12.023438 18.914062 12.042969 18.898438 12.042969 C 18.882812 12.042969 18.847656 12.066406 18.8125 12.09375 C 18.742188 12.160156 18.691406 12.164062 18.742188 12.101562 C 18.757812 12.074219 18.734375 12.09375 18.683594 12.136719 C 18.632812 12.183594 18.558594 12.242188 18.515625 12.273438 C 18.476562 12.300781 18.289062 12.46875 18.101562 12.644531 C 17.527344 13.175781 17.503906 13.191406 17.464844 13.167969 C 17.441406 13.15625 17.140625 12.882812 16.792969 12.558594 C 16.445312 12.238281 15.832031 11.667969 15.425781 11.292969 C 14.699219 10.628906 12.503906 8.605469 11.085938 7.292969 C 10.6875 6.929688 10.363281 6.625 10.363281 6.621094 C 10.363281 6.617188 13.578125 6.613281 17.507812 6.613281 L 24.648438 6.613281 Z M 10.851562 8.300781 C 13.015625 10.296875 14.699219 11.851562 14.871094 12.007812 C 15.042969 12.175781 15.050781 12.183594 15.003906 12.226562 C 14.957031 12.269531 9.777344 16 9.699219 16.042969 C 9.671875 16.058594 9.664062 15.171875 9.664062 11.640625 L 9.664062 7.214844 L 9.792969 7.332031 C 9.863281 7.394531 10.339844 7.832031 10.851562 8.300781 Z M 25.324219 16.050781 C 25.316406 16.058594 23.976562 15.113281 23.328125 14.636719 C 23.125 14.488281 21.148438 13.066406 20.476562 12.585938 C 20.25 12.425781 20.035156 12.269531 19.996094 12.242188 L 19.929688 12.1875 L 21.339844 10.882812 C 22.121094 10.164062 23.332031 9.046875 24.039062 8.398438 L 25.320312 7.214844 L 25.328125 11.628906 C 25.332031 14.054688 25.328125 16.046875 25.324219 16.050781 Z M 16.480469 13.496094 C 16.886719 13.867188 17.253906 14.191406 17.292969 14.210938 C 17.386719 14.261719 17.609375 14.265625 17.691406 14.222656 C 17.753906 14.1875 18.121094 13.855469 18.851562 13.175781 L 19.246094 12.808594 L 19.6875 13.125 C 19.929688 13.300781 20.90625 14.003906 21.859375 14.6875 C 24.035156 16.25 24.363281 16.488281 24.363281 16.5 C 24.363281 16.507812 21.265625 16.511719 17.480469 16.511719 L 10.597656 16.511719 L 10.945312 16.257812 C 11.484375 15.875 13.5 14.421875 13.742188 14.246094 C 13.863281 14.164062 14.359375 13.808594 14.847656 13.453125 C 15.335938 13.101562 15.738281 12.816406 15.738281 12.8125 C 15.742188 12.8125 16.074219 13.117188 16.480469 13.496094 Z M 16.480469 13.496094 "/>
<path style=" stroke:none;fill-rule:nonzero;fill:rgb(87.058824%,86.27451%,86.27451%);fill-opacity:1;" d="M 0 30.058594 L 0 31.253906 L 35 31.253906 L 35 28.859375 L 0 28.859375 Z M 2.101562 29.921875 L 2.101562 30.457031 L 1.910156 30.457031 L 1.910156 29.390625 L 2.101562 29.390625 Z M 1.789062 29.644531 C 1.855469 29.707031 1.859375 29.722656 1.859375 30.039062 C 1.859375 30.222656 1.867188 30.390625 1.875 30.414062 C 1.886719 30.449219 1.871094 30.457031 1.792969 30.457031 C 1.71875 30.457031 1.695312 30.445312 1.695312 30.410156 C 1.695312 30.371094 1.691406 30.375 1.640625 30.414062 C 1.582031 30.46875 1.472656 30.476562 1.414062 30.429688 C 1.390625 30.414062 1.367188 30.355469 1.355469 30.304688 C 1.332031 30.171875 1.398438 30.054688 1.546875 29.960938 C 1.648438 29.898438 1.667969 29.871094 1.664062 29.816406 C 1.652344 29.734375 1.578125 29.730469 1.566406 29.808594 C 1.558594 29.859375 1.539062 29.871094 1.464844 29.871094 C 1.382812 29.871094 1.375 29.863281 1.375 29.789062 C 1.375 29.667969 1.476562 29.578125 1.617188 29.578125 C 1.695312 29.578125 1.742188 29.59375 1.789062 29.644531 Z M 2.523438 29.59375 C 2.636719 29.621094 2.664062 29.730469 2.664062 30.109375 L 2.664062 30.457031 L 2.585938 30.457031 C 2.542969 30.457031 2.503906 30.441406 2.496094 30.421875 C 2.484375 30.394531 2.476562 30.394531 2.449219 30.421875 C 2.398438 30.46875 2.246094 30.464844 2.195312 30.414062 C 2.140625 30.359375 2.140625 30.164062 2.195312 30.089844 C 2.21875 30.058594 2.292969 29.992188 2.359375 29.949219 C 2.449219 29.886719 2.476562 29.851562 2.472656 29.808594 C 2.460938 29.730469 2.390625 29.734375 2.355469 29.808594 C 2.335938 29.855469 2.308594 29.871094 2.238281 29.871094 C 2.152344 29.871094 2.148438 29.867188 2.164062 29.78125 C 2.195312 29.625 2.34375 29.546875 2.523438 29.59375 Z M 3.15625 29.628906 C 3.1875 29.679688 3.1875 29.679688 3.253906 29.628906 C 3.332031 29.566406 3.398438 29.5625 3.457031 29.621094 C 3.492188 29.65625 3.5 29.730469 3.5 30.058594 L 3.5 30.457031 L 3.339844 30.457031 L 3.339844 30.15625 C 3.339844 29.828125 3.320312 29.738281 3.269531 29.738281 C 3.214844 29.738281 3.203125 29.804688 3.203125 30.140625 L 3.203125 30.457031 L 3.019531 30.457031 L 3.011719 30.101562 C 3 29.8125 2.992188 29.75 2.960938 29.75 C 2.929688 29.75 2.921875 29.8125 2.914062 30.101562 L 2.90625 30.457031 L 2.71875 30.457031 L 2.71875 29.605469 L 2.8125 29.605469 C 2.871094 29.605469 2.90625 29.617188 2.90625 29.636719 C 2.90625 29.65625 2.921875 29.652344 2.953125 29.621094 C 3.015625 29.5625 3.113281 29.5625 3.15625 29.628906 Z M 3.746094 29.949219 C 3.753906 30.273438 3.757812 30.28125 3.816406 30.289062 C 3.875 30.296875 3.875 30.296875 3.875 29.953125 C 3.875 29.738281 3.886719 29.605469 3.902344 29.601562 C 4.0625 29.582031 4.050781 29.546875 4.058594 30.042969 C 4.066406 30.292969 4.058594 30.53125 4.050781 30.578125 C 4.03125 30.683594 3.949219 30.722656 3.753906 30.722656 C 3.609375 30.722656 3.609375 30.722656 3.609375 30.640625 C 3.609375 30.570312 3.617188 30.5625 3.699219 30.5625 C 3.832031 30.5625 3.875 30.539062 3.875 30.46875 C 3.875 30.40625 3.875 30.40625 3.796875 30.445312 C 3.699219 30.492188 3.617188 30.460938 3.582031 30.359375 C 3.566406 30.324219 3.554688 30.140625 3.554688 29.949219 L 3.554688 29.605469 L 3.628906 29.597656 C 3.667969 29.59375 3.710938 29.597656 3.722656 29.605469 C 3.730469 29.613281 3.746094 29.769531 3.746094 29.949219 Z M 3.746094 29.949219 "/>
</g>
</svg>
