<?xml version="1.0" encoding="UTF-8"?>
<svg xmlns="http://www.w3.org/2000/svg" xmlns:xlink="http://www.w3.org/1999/xlink" width="35px" height="35px" viewBox="0 0 35 35" version="1.1">
<g id="surface1">
<path style=" stroke:none;fill-rule:nonzero;fill:rgb(87.058824%,86.27451%,86.27451%);fill-opacity:1;" d="M 16.003906 2.898438 C 13.441406 3.457031 11.378906 5.441406 10.695312 7.996094 C 10.535156 8.589844 10.515625 8.816406 10.507812 9.738281 C 10.507812 10.636719 10.535156 10.894531 10.667969 11.40625 C 11.1875 13.410156 12.417969 15.011719 14.179688 15.960938 C 16.230469 17.066406 18.855469 17.054688 20.90625 15.925781 C 24.167969 14.136719 25.460938 10.054688 23.832031 6.683594 C 22.957031 4.871094 21.433594 3.601562 19.421875 2.992188 C 18.625 2.753906 16.894531 2.699219 16.003906 2.898438 Z M 18.515625 4.304688 C 20.585938 4.703125 22.199219 6.164062 22.855469 8.234375 C 22.992188 8.671875 23.011719 8.890625 23.011719 9.738281 C 23.011719 10.882812 22.921875 11.292969 22.5 12.171875 C 21.945312 13.320312 21.097656 14.164062 19.9375 14.730469 C 19.011719 15.175781 18.480469 15.304688 17.507812 15.304688 C 16.539062 15.304688 16.003906 15.175781 15.082031 14.730469 C 13.679688 14.054688 12.71875 12.9375 12.203125 11.414062 C 11.945312 10.613281 11.898438 9.328125 12.101562 8.507812 C 12.53125 6.785156 13.640625 5.441406 15.207031 4.714844 C 16.257812 4.230469 17.386719 4.09375 18.515625 4.304688 Z M 18.515625 4.304688 "/>
<path style=" stroke:none;fill-rule:nonzero;fill:rgb(87.058824%,86.27451%,86.27451%);fill-opacity:1;" d="M 14.296875 18.25 C 8.648438 19.023438 4.179688 23.21875 3.042969 28.792969 C 2.878906 29.613281 2.742188 31.210938 2.796875 31.628906 C 2.839844 31.886719 3.105469 32.132812 3.414062 32.1875 C 3.550781 32.210938 9.929688 32.230469 17.578125 32.222656 C 28.171875 32.222656 31.542969 32.203125 31.722656 32.140625 C 32.144531 31.992188 32.226562 31.792969 32.214844 30.953125 C 32.1875 29.152344 31.695312 27.164062 30.859375 25.503906 C 28.855469 21.511719 25.097656 18.824219 20.703125 18.25 C 19.664062 18.121094 15.28125 18.113281 14.296875 18.25 Z M 20.046875 19.652344 C 22.882812 19.9375 25.316406 21.085938 27.285156 23.0625 C 28.308594 24.09375 28.910156 24.921875 29.507812 26.113281 C 30.175781 27.457031 30.601562 28.886719 30.738281 30.261719 L 30.785156 30.726562 L 4.234375 30.726562 L 4.28125 30.261719 C 4.417969 28.886719 4.84375 27.457031 5.511719 26.113281 C 6.105469 24.921875 6.707031 24.09375 7.734375 23.0625 C 9.660156 21.128906 12.144531 19.945312 14.878906 19.660156 C 15.683594 19.578125 19.226562 19.570312 20.046875 19.652344 Z M 20.046875 19.652344 "/>
</g>
</svg>
