<?xml version="1.0" encoding="UTF-8"?>
<svg xmlns="http://www.w3.org/2000/svg" xmlns:xlink="http://www.w3.org/1999/xlink" width="35px" height="28px" viewBox="0 0 35 28" version="1.1">
<g id="surface1">
<path style=" stroke:none;fill-rule:nonzero;fill:rgb(87.058824%,86.27451%,86.27451%);fill-opacity:1;" d="M 14.234375 2.195312 C 12.121094 2.417969 10.179688 3.335938 8.667969 4.824219 C 5.789062 7.660156 5.039062 12.050781 6.804688 15.699219 C 7.25 16.601562 7.742188 17.316406 8.429688 18.042969 C 10.054688 19.765625 12.160156 20.761719 14.46875 20.910156 C 16.183594 21.019531 17.84375 20.667969 19.339844 19.886719 C 19.539062 19.785156 19.71875 19.695312 19.738281 19.695312 C 19.761719 19.695312 21.113281 21.050781 22.75 22.710938 C 25.945312 25.957031 25.808594 25.832031 26.273438 25.835938 C 26.679688 25.839844 26.851562 25.710938 27.960938 24.574219 C 28.589844 23.921875 28.992188 23.476562 29.042969 23.367188 C 29.160156 23.113281 29.171875 22.828125 29.085938 22.558594 C 29.019531 22.335938 28.851562 22.164062 26.042969 19.296875 L 23.074219 16.269531 L 23.269531 15.886719 C 23.734375 15 24.148438 13.625 24.246094 12.660156 C 24.316406 12.007812 24.277344 10.417969 24.179688 9.925781 C 23.789062 7.90625 22.96875 6.316406 21.601562 4.929688 C 20.140625 3.445312 18.496094 2.605469 16.386719 2.261719 C 15.886719 2.179688 14.742188 2.144531 14.234375 2.195312 Z M 15.78125 4.585938 C 16.59375 4.671875 17.457031 4.933594 18.214844 5.320312 C 19.277344 5.863281 20.367188 6.894531 20.976562 7.933594 C 21.71875 9.207031 22.070312 10.722656 21.945312 12.121094 C 21.835938 13.351562 21.453125 14.449219 20.78125 15.488281 C 20.414062 16.054688 19.5 16.972656 18.929688 17.363281 C 18.128906 17.902344 17.214844 18.277344 16.238281 18.464844 C 15.648438 18.578125 14.460938 18.566406 13.847656 18.445312 C 12.910156 18.257812 12.007812 17.882812 11.222656 17.347656 C 10.671875 16.972656 9.75 16.039062 9.394531 15.488281 C 8.480469 14.082031 8.066406 12.4375 8.230469 10.863281 C 8.550781 7.867188 10.683594 5.410156 13.527344 4.742188 C 14.351562 4.550781 14.996094 4.503906 15.78125 4.585938 Z M 15.78125 4.585938 "/>
</g>
</svg>
