<?xml version="1.0" encoding="UTF-8"?>
<svg xmlns="http://www.w3.org/2000/svg" xmlns:xlink="http://www.w3.org/1999/xlink" width="35px" height="35px" viewBox="0 0 35 35" version="1.1">
<g id="surface1">
<path style=" stroke:none;fill-rule:nonzero;fill:rgb(87.058824%,86.27451%,86.27451%);fill-opacity:1;" d="M 15.5625 1.832031 C 11.90625 2.320312 8.320312 4.160156 5.921875 6.785156 C 4.101562 8.761719 2.789062 11.230469 2.140625 13.855469 C 1.667969 15.796875 1.632812 19.175781 2.054688 20.941406 C 3.628906 27.433594 8.617188 32.125 15.019531 33.175781 C 16.859375 33.453125 20.097656 33.296875 21.777344 32.808594 C 26.257812 31.53125 30.054688 28.292969 31.945312 24.144531 C 32.976562 21.835938 33.238281 20.558594 33.238281 17.582031 C 33.238281 14.34375 32.992188 13.257812 31.734375 10.632812 C 29.390625 5.75 24.875 2.515625 19.484375 1.832031 C 17.855469 1.640625 17.105469 1.640625 15.5625 1.832031 Z M 21.007812 4.105469 C 25.660156 5.296875 29.371094 8.882812 30.875 13.644531 C 31.472656 15.5 31.558594 18.597656 31.070312 20.59375 C 29.808594 25.910156 25.90625 29.8125 20.585938 31.074219 C 18.589844 31.5625 15.492188 31.476562 13.640625 30.882812 C 7.601562 28.972656 3.734375 23.8125 3.699219 17.582031 C 3.664062 11.472656 7.480469 6.242188 13.375 4.300781 C 15.773438 3.511719 18.433594 3.460938 21.007812 4.105469 Z M 21.007812 4.105469 "/>
<path style=" stroke:none;fill-rule:nonzero;fill:rgb(87.058824%,86.27451%,86.27451%);fill-opacity:1;" d="M 8.476562 14.730469 C 7.410156 15.132812 6.550781 16.390625 6.550781 17.582031 C 6.550781 18.457031 7.109375 19.558594 7.792969 20.050781 C 8.214844 20.347656 8.667969 20.46875 9.457031 20.523438 C 10.734375 20.609375 11.382812 20.328125 12.097656 19.382812 C 12.519531 18.84375 12.589844 18.578125 12.589844 17.582031 C 12.589844 16.585938 12.519531 16.320312 12.097656 15.78125 C 11.835938 15.429688 11.382812 15.007812 11.101562 14.871094 C 10.609375 14.605469 9.019531 14.535156 8.476562 14.730469 Z M 8.476562 14.730469 "/>
<path style=" stroke:none;fill-rule:nonzero;fill:rgb(87.058824%,86.27451%,86.27451%);fill-opacity:1;" d="M 16.019531 14.90625 C 14.007812 15.902344 14.023438 19.296875 16.054688 20.257812 C 16.964844 20.695312 18.433594 20.644531 19.152344 20.15625 C 20.183594 19.453125 20.464844 18.910156 20.464844 17.582031 C 20.464844 16.25 20.183594 15.710938 19.152344 14.992188 C 18.433594 14.519531 16.910156 14.46875 16.019531 14.90625 Z M 16.019531 14.90625 "/>
<path style=" stroke:none;fill-rule:nonzero;fill:rgb(87.058824%,86.27451%,86.27451%);fill-opacity:1;" d="M 23.859375 15.007812 C 22.894531 15.65625 22.476562 16.425781 22.476562 17.582031 C 22.476562 18.738281 22.894531 19.507812 23.859375 20.15625 C 24.59375 20.644531 26.0625 20.695312 26.972656 20.257812 C 29.019531 19.296875 29.019531 15.867188 26.972656 14.90625 C 26.0625 14.46875 24.59375 14.519531 23.859375 15.007812 Z M 23.859375 15.007812 "/>
</g>
</svg>
