<svg version="1.1" xmlns="http://www.w3.org/2000/svg" xmlns:xlink="http://www.w3.org/1999/xlink" width="480.000000pt" height="480.000000pt" viewBox="0,0,256,256"><g fill="#1ea1d1" fill-rule="nonzero" stroke="none" stroke-width="1" stroke-linecap="butt" stroke-linejoin="miter" stroke-miterlimit="10" stroke-dasharray="" stroke-dashoffset="0" font-family="none" font-weight="none" font-size="none" text-anchor="none" style="mix-blend-mode: normal"><g transform="translate(-0.02667,-0.04013) scale(0.53333,0.53333)"><g transform="translate(0,480) scale(0.1,-0.1)"><path d="M2155,3985c-557,-89 -1032,-466 -1240,-984c-84,-211 -115,-374 -115,-609c0,-222 31,-381 112,-587c82,-207 186,-363 358,-536c309,-311 690,-470 1123,-469c176,1 261,10 397,44c289,74 523,208 741,425c174,175 272,321 359,541c81,203 111,366 111,603c-1,240 -53,468 -157,684c-137,285 -388,550 -676,712c-133,75 -352,149 -518,176c-115,18 -381,18 -495,0zM2043,3810c5,-19 13,-21 75,-19c38,1 75,-2 82,-6c24,-15 80,-115 101,-182c12,-37 33,-79 45,-93l23,-25l-29,-17c-36,-20 -36,-30 -9,-102c14,-38 34,-67 61,-91c65,-55 102,-46 142,32c20,39 81,83 116,83c14,0 45,14 69,30c24,17 71,40 103,52c49,17 62,28 79,59c10,21 19,46 19,55c0,9 11,29 25,45c13,16 27,45 31,64c10,57 23,59 100,19c270,-142 497,-370 640,-642c42,-82 40,-97 -14,-119c-29,-12 -34,-10 -90,27c-33,22 -67,40 -75,40c-9,0 -40,-27 -69,-60c-55,-63 -76,-73 -170,-85c-56,-7 -65,-17 -44,-47c33,-46 6,-88 -55,-88c-41,0 -47,-6 -66,-60c-18,-51 -16,-77 9,-94c45,-32 92,-16 226,79c107,77 147,74 197,-10c20,-36 32,-45 48,-43c17,2 23,11 25,36c5,54 55,33 87,-37c22,-49 41,-52 80,-11c52,54 59,43 71,-100l6,-85l-88,-23c-49,-12 -100,-22 -113,-22c-17,0 -50,27 -112,90c-101,104 -85,99 -272,71c-139,-22 -162,-30 -171,-63c-7,-28 -40,-65 -83,-96c-18,-13 -43,-44 -57,-70c-13,-26 -31,-60 -40,-77c-20,-37 -14,-69 26,-150c66,-132 146,-175 313,-167c120,5 128,-1 136,-105c4,-43 15,-100 24,-127c15,-41 17,-59 9,-108c-7,-37 -7,-83 -1,-123c5,-35 5,-70 0,-78c-16,-28 -149,-139 -230,-192c-175,-116 -328,-180 -544,-226c-139,-30 -400,-33 -533,-6c-122,25 -246,65 -246,81c0,17 35,53 69,71c16,8 38,26 48,39c11,13 35,31 55,39c27,11 39,24 49,55c15,41 56,80 195,184c50,38 84,74 118,126c73,112 116,221 98,248c-4,7 -32,19 -62,27c-30,9 -93,29 -139,45c-80,27 -86,31 -102,68c-18,44 -103,124 -183,173c-53,32 -106,42 -285,57l-84,6l-96,100c-53,55 -111,107 -130,116c-19,10 -43,29 -53,43c-21,28 -27,84 -11,100c5,5 54,15 108,21l99,11l41,-46c23,-26 46,-47 53,-47c8,0 12,19 12,54c0,45 4,56 23,69c13,8 29,33 35,55c14,47 65,94 127,118c24,9 49,28 62,49c13,19 34,37 48,40c14,3 36,7 50,10c36,8 42,32 16,59c-31,33 -12,41 48,21c51,-17 87,-10 123,22c28,25 21,49 -19,80c-21,15 -41,32 -45,38c-3,5 -16,21 -28,35c-12,14 -33,49 -46,79c-22,50 -26,53 -51,46c-84,-20 -90,-19 -116,22c-32,50 -51,65 -79,61c-41,-6 -57,-67 -43,-160c9,-58 -4,-78 -49,-78c-36,0 -83,29 -178,108c-76,65 -90,86 -82,132c14,79 64,132 151,161c59,19 102,55 85,70c-23,21 -76,28 -123,17c-42,-10 -52,-9 -60,3c-13,22 -7,31 45,63c46,29 48,29 76,13c44,-27 60,-22 60,16c0,55 43,85 197,137c105,35 109,36 116,10zM1025,2529c49,-59 81,-86 92,-76c3,3 -9,34 -25,69c-17,35 -34,79 -38,98c-6,35 -6,35 14,17c11,-11 54,-80 94,-154c40,-74 83,-146 96,-158c13,-13 46,-28 73,-34c28,-6 64,-18 82,-27c39,-20 236,-166 261,-193c23,-26 15,-61 -25,-112c-37,-47 -37,-85 -4,-196c24,-78 31,-88 92,-146l65,-62l-6,-67c-7,-73 -16,-100 -46,-138c-12,-15 -29,-66 -41,-125c-12,-55 -24,-103 -28,-108c-4,-4 -47,20 -97,52c-340,227 -565,569 -640,976c-20,108 -26,342 -11,448l9,59l16,-31c9,-18 40,-59 67,-92z"></path><path d="M1885,3621c-3,-6 -1,-28 4,-48c10,-34 8,-40 -10,-54c-11,-8 -29,-35 -40,-59c-21,-47 -16,-60 29,-60c14,0 44,-20 76,-50c29,-27 60,-50 69,-50c8,0 27,14 41,31c25,29 25,32 11,60c-19,36 -12,51 20,43c27,-7 65,3 65,16c0,5 -23,21 -51,36c-38,21 -52,35 -56,57c-5,23 -16,33 -58,52c-75,33 -92,37 -100,26z"></path><path d="M3241,3106c-14,-17 -8,-45 20,-95c14,-23 18,-43 13,-66c-4,-25 -2,-34 12,-39c20,-8 94,38 101,62c8,30 4,36 -28,46c-27,9 -34,18 -43,56c-9,38 -15,45 -37,48c-14,2 -31,-4 -38,-12z"></path></g></g></g></svg>