<svg version="1.1" xmlns="http://www.w3.org/2000/svg" xmlns:xlink="http://www.w3.org/1999/xlink" width="5000.000000pt" height="5000.000000pt" viewBox="0,0,256,256"><g fill-opacity="0.56078" fill="#136b8f" fill-rule="nonzero" stroke="none" stroke-width="1" stroke-linecap="butt" stroke-linejoin="miter" stroke-miterlimit="10" stroke-dasharray="" stroke-dashoffset="0" font-family="none" font-weight="none" font-size="none" text-anchor="none" style="mix-blend-mode: normal"><g transform="translate(-0.52497,-4.02552) scale(0.0512,0.0512)"><g transform="translate(0,5000) scale(0.1,-0.1)"><path d="M24530,42990c-1027,-50 -1975,-206 -2933,-481c-1900,-545 -3677,-1555 -5110,-2904c-2503,-2354 -3898,-5555 -3906,-8955c-4,-2125 552,-4236 1599,-6070c42,-74 149,-261 237,-415c156,-275 348,-612 653,-1150c85,-148 236,-416 338,-595c102,-179 271,-478 377,-665c106,-187 324,-572 485,-855c161,-283 350,-616 420,-740c70,-124 262,-461 425,-750c164,-289 345,-608 403,-710c57,-102 160,-282 227,-400c114,-201 871,-1536 1438,-2535c137,-242 304,-537 372,-655c67,-118 198,-350 292,-515c94,-165 256,-451 360,-635c238,-419 928,-1636 1038,-1830c46,-80 130,-228 187,-330c58,-102 240,-421 403,-710c164,-289 345,-608 403,-710c57,-102 160,-282 227,-400c67,-118 362,-638 655,-1155c294,-517 684,-1205 868,-1530c185,-324 372,-655 417,-735c76,-135 255,-449 533,-938c92,-162 118,-200 127,-190c7,7 104,175 217,373c112,198 383,671 600,1050c217,380 788,1376 1268,2215c480,839 1076,1881 1325,2315c249,435 685,1197 970,1695c285,498 667,1166 850,1485c183,319 574,1003 870,1520c296,517 734,1282 973,1700c1010,1764 2680,4682 3139,5485c272,476 547,955 611,1065c356,614 585,1070 808,1609c485,1169 788,2421 889,3671c33,419 40,605 39,1070c-2,519 -31,1000 -90,1460c-208,1634 -714,3150 -1522,4565c-957,1675 -2328,3135 -3947,4205c-1905,1258 -4075,1964 -6375,2074c-212,10 -959,11 -1160,1zM25650,37685c927,-83 1744,-312 2550,-714c1655,-826 2908,-2258 3496,-3996c193,-570 284,-1026 349,-1751c23,-259 13,-803 -21,-1134c-116,-1140 -488,-2181 -1117,-3130c-997,-1503 -2557,-2572 -4319,-2960c-295,-65 -505,-97 -948,-145c-25,-2 -160,-10 -300,-16c-971,-43 -1982,129 -2887,490c-2480,988 -4186,3294 -4378,5916c-148,2032 572,3973 2005,5405c1082,1082 2465,1774 3975,1989c188,26 418,50 600,61c215,12 787,4 995,-15z"></path></g></g></g></svg>