<svg version="1.1" xmlns="http://www.w3.org/2000/svg" xmlns:xlink="http://www.w3.org/1999/xlink" width="980.000000pt" height="980.000000pt" viewBox="0,0,256,256"><g fill="#1f9cde" fill-rule="nonzero" stroke="none" stroke-width="1" stroke-linecap="butt" stroke-linejoin="miter" stroke-miterlimit="10" stroke-dasharray="" stroke-dashoffset="0" font-family="none" font-weight="none" font-size="none" text-anchor="none" style="mix-blend-mode: normal"><g transform="translate(-0.01328,-0.0023) scale(0.26122,0.26122)"><g transform="translate(0,980) scale(0.1,-0.1)"><path d="M4485,9109c-389,-28 -940,-181 -1357,-377c-136,-64 -368,-193 -523,-291c-553,-349 -1043,-865 -1382,-1456c-230,-401 -415,-921 -482,-1355c-47,-314 -63,-525 -58,-777c5,-264 27,-528 58,-703c149,-846 592,-1676 1220,-2285c332,-322 661,-552 1094,-765c299,-147 549,-239 860,-315c309,-76 479,-94 965,-102c263,-4 333,-2 510,16c244,26 281,32 469,77c897,214 1690,703 2288,1409c509,602 860,1390 945,2125c32,275 36,770 9,1068c-25,261 -38,345 -87,532c-169,645 -449,1200 -851,1687c-144,174 -419,446 -583,577c-565,451 -1259,773 -1909,886c-288,50 -842,73 -1186,49zM5295,8505c1028,-121 1920,-637 2532,-1465c312,-422 543,-952 642,-1470c46,-244 56,-363 56,-665c0,-372 -24,-574 -107,-900c-232,-914 -826,-1720 -1623,-2200c-481,-290 -1000,-460 -1570,-516c-168,-16 -530,-14 -706,5c-588,64 -1126,257 -1609,579c-734,490 -1276,1241 -1504,2087c-95,352 -133,664 -123,1030c9,327 44,571 127,871c64,233 137,423 247,644c193,387 416,690 739,1005c282,275 563,473 909,641c428,208 872,323 1435,373c87,8 427,-4 555,-19z"></path><path d="M3310,6204c-267,-71 -450,-300 -452,-568c-2,-179 50,-306 176,-432c127,-127 239,-174 416,-174c174,0 292,45 407,154c123,116 182,244 190,416c10,185 -40,313 -172,446c-86,87 -160,130 -270,159c-74,19 -222,19 -295,-1z"></path><path d="M6216,6205c-170,-43 -316,-156 -386,-299c-89,-181 -92,-373 -7,-551c101,-210 294,-325 546,-325c162,0 266,41 381,147c87,80 136,155 173,263c26,73 30,99 30,190c0,87 -4,117 -26,178c-64,184 -198,321 -373,384c-77,28 -252,34 -338,13z"></path><path d="M2984,3800c-105,-24 -203,-113 -230,-208c-33,-113 6,-222 118,-334c290,-285 918,-592 1421,-692c207,-42 316,-51 602,-51c315,0 488,18 736,75c476,110 1030,396 1304,675c93,94 127,156 133,238c6,78 -17,135 -82,201c-66,67 -125,96 -199,96c-104,0 -131,-14 -512,-275c-348,-239 -620,-338 -1098,-400c-326,-42 -762,4 -1077,113c-221,77 -512,233 -698,375c-207,157 -324,210 -418,187z"></path></g></g></g></svg>