<?xml version="1.0" encoding="UTF-8"?>
<svg xmlns="http://www.w3.org/2000/svg" xmlns:xlink="http://www.w3.org/1999/xlink" width="35px" height="35px" viewBox="0 0 35 35" version="1.1">
<g id="surface1">
<path style=" stroke:none;fill-rule:nonzero;fill:rgb(87.058824%,86.27451%,86.27451%);fill-opacity:1;" d="M 16.585938 0.113281 C 15.277344 0.394531 14.234375 1.167969 13.6875 2.265625 C 13.601562 2.433594 13.527344 2.574219 13.523438 2.582031 C 13.515625 2.585938 13.394531 2.515625 13.253906 2.425781 C 12.886719 2.1875 12.65625 2.078125 12.265625 1.949219 C 11.800781 1.796875 11.433594 1.738281 10.917969 1.734375 C 9.726562 1.734375 8.644531 2.1875 7.828125 3.035156 C 6.992188 3.902344 6.605469 4.847656 6.601562 6.03125 L 6.597656 6.5625 L 6.085938 6.5625 C 4.90625 6.566406 3.9375 6.960938 3.082031 7.785156 C 2.222656 8.609375 1.773438 9.683594 1.773438 10.882812 C 1.777344 11.746094 1.996094 12.5 2.453125 13.203125 C 2.546875 13.355469 2.625 13.480469 2.617188 13.488281 C 2.609375 13.492188 2.449219 13.574219 2.257812 13.671875 C 1.84375 13.886719 1.28125 14.34375 0.996094 14.695312 C 0.382812 15.457031 0.0546875 16.308594 0.0117188 17.257812 C -0.0429688 18.386719 0.316406 19.414062 1.078125 20.332031 C 1.324219 20.621094 1.863281 21.042969 2.25 21.25 C 2.445312 21.347656 2.609375 21.433594 2.617188 21.4375 C 2.625 21.445312 2.546875 21.574219 2.449219 21.726562 C 1.511719 23.167969 1.542969 25.042969 2.519531 26.5 C 2.734375 26.816406 3.269531 27.359375 3.589844 27.578125 C 4.398438 28.128906 5.109375 28.355469 6.066406 28.359375 L 6.597656 28.363281 L 6.597656 28.875 C 6.601562 30.058594 6.996094 31.023438 7.828125 31.890625 C 9.085938 33.199219 11.039062 33.5625 12.714844 32.800781 C 12.855469 32.742188 13.089844 32.609375 13.238281 32.507812 C 13.390625 32.414062 13.515625 32.335938 13.523438 32.34375 C 13.527344 32.351562 13.59375 32.484375 13.675781 32.640625 C 13.96875 33.230469 14.507812 33.839844 15.082031 34.222656 C 15.476562 34.480469 15.710938 34.597656 16.121094 34.734375 C 18.117188 35.402344 20.320312 34.53125 21.292969 32.6875 C 21.390625 32.503906 21.46875 32.351562 21.472656 32.34375 C 21.480469 32.335938 21.609375 32.414062 21.761719 32.511719 C 23.039062 33.339844 24.664062 33.421875 26.03125 32.734375 C 27.007812 32.238281 27.820312 31.316406 28.167969 30.292969 C 28.347656 29.78125 28.441406 29.140625 28.40625 28.671875 L 28.378906 28.363281 L 28.921875 28.359375 C 29.691406 28.355469 30.183594 28.242188 30.832031 27.914062 C 31.265625 27.695312 31.546875 27.5 31.925781 27.132812 C 33.230469 25.875 33.59375 23.921875 32.835938 22.25 C 32.777344 22.109375 32.644531 21.871094 32.542969 21.722656 C 32.449219 21.570312 32.375 21.445312 32.382812 21.4375 C 32.390625 21.433594 32.542969 21.355469 32.722656 21.253906 C 34.570312 20.285156 35.441406 18.082031 34.769531 16.085938 C 34.632812 15.675781 34.515625 15.4375 34.257812 15.046875 C 33.878906 14.476562 33.269531 13.933594 32.679688 13.640625 C 32.523438 13.558594 32.390625 13.492188 32.382812 13.488281 C 32.375 13.480469 32.445312 13.359375 32.539062 13.21875 C 33.007812 12.488281 33.222656 11.769531 33.222656 10.898438 C 33.226562 9.976562 32.972656 9.148438 32.441406 8.382812 C 32.117188 7.914062 31.503906 7.367188 30.964844 7.070312 C 30.714844 6.933594 30.257812 6.75 29.996094 6.683594 C 29.632812 6.59375 29 6.53125 28.6875 6.558594 L 28.398438 6.582031 L 28.398438 6.0625 C 28.394531 4.867188 28.003906 3.902344 27.167969 3.035156 C 25.753906 1.566406 23.476562 1.300781 21.761719 2.414062 C 21.609375 2.511719 21.480469 2.585938 21.472656 2.582031 C 21.46875 2.574219 21.382812 2.410156 21.285156 2.21875 C 20.707031 1.113281 19.640625 0.347656 18.316406 0.0976562 C 17.886719 0.015625 17.003906 0.0234375 16.585938 0.113281 Z M 18.28125 1.5625 C 19.15625 1.785156 19.890625 2.476562 20.199219 3.363281 C 20.238281 3.476562 20.289062 3.703125 20.3125 3.867188 C 20.335938 4.035156 20.363281 4.222656 20.375 4.292969 C 20.398438 4.445312 20.625 4.710938 20.796875 4.78125 C 21.140625 4.921875 21.46875 4.796875 21.753906 4.417969 C 22.144531 3.894531 22.660156 3.507812 23.230469 3.316406 C 23.496094 3.230469 23.589844 3.21875 24.082031 3.21875 C 24.515625 3.214844 24.679688 3.230469 24.859375 3.289062 C 25.789062 3.578125 26.515625 4.273438 26.808594 5.15625 C 26.886719 5.402344 26.910156 5.550781 26.925781 5.941406 C 26.941406 6.476562 26.882812 6.773438 26.660156 7.28125 C 26.566406 7.5 26.550781 7.582031 26.5625 7.746094 C 26.582031 8.007812 26.722656 8.222656 26.941406 8.328125 C 27.175781 8.4375 27.382812 8.429688 27.699219 8.289062 C 28.175781 8.082031 28.519531 8.015625 29.042969 8.035156 C 29.835938 8.070312 30.355469 8.296875 30.933594 8.863281 C 31.214844 9.144531 31.285156 9.246094 31.457031 9.585938 C 31.710938 10.109375 31.78125 10.417969 31.753906 10.996094 C 31.742188 11.292969 31.707031 11.515625 31.652344 11.699219 C 31.566406 11.964844 31.367188 12.371094 31.226562 12.554688 C 31.085938 12.742188 30.734375 13.078125 30.53125 13.226562 C 30.269531 13.414062 30.160156 13.574219 30.136719 13.8125 C 30.117188 14.035156 30.175781 14.203125 30.335938 14.375 C 30.503906 14.550781 30.542969 14.570312 30.976562 14.632812 C 31.445312 14.695312 31.652344 14.761719 32.050781 14.964844 C 32.449219 15.167969 32.976562 15.683594 33.179688 16.074219 C 33.472656 16.636719 33.589844 17.246094 33.515625 17.792969 C 33.417969 18.503906 33.171875 18.992188 32.679688 19.484375 C 32.1875 19.972656 31.65625 20.21875 30.878906 20.3125 C 30.410156 20.371094 30.171875 20.585938 30.136719 20.980469 C 30.113281 21.28125 30.21875 21.484375 30.519531 21.699219 C 30.816406 21.910156 31.214844 22.328125 31.378906 22.609375 C 31.449219 22.726562 31.558594 22.976562 31.625 23.15625 C 31.738281 23.472656 31.746094 23.523438 31.746094 24.042969 C 31.746094 24.519531 31.734375 24.628906 31.660156 24.859375 C 31.480469 25.390625 31.195312 25.839844 30.816406 26.179688 C 30.515625 26.453125 30.234375 26.617188 29.835938 26.757812 C 29.554688 26.855469 29.429688 26.875 29.042969 26.890625 C 28.519531 26.910156 28.175781 26.84375 27.699219 26.636719 C 27.402344 26.5 27.195312 26.488281 26.984375 26.574219 C 26.792969 26.652344 26.710938 26.734375 26.625 26.917969 C 26.523438 27.140625 26.535156 27.359375 26.671875 27.664062 C 26.878906 28.140625 26.945312 28.484375 26.925781 29.003906 C 26.910156 29.363281 26.882812 29.535156 26.808594 29.769531 C 26.519531 30.648438 25.792969 31.347656 24.859375 31.636719 C 24.679688 31.695312 24.515625 31.710938 24.082031 31.707031 C 23.585938 31.707031 23.5 31.695312 23.222656 31.605469 C 23.058594 31.550781 22.808594 31.441406 22.671875 31.359375 C 22.382812 31.1875 21.953125 30.792969 21.742188 30.5 C 21.539062 30.222656 21.386719 30.125 21.132812 30.101562 C 20.976562 30.089844 20.886719 30.105469 20.757812 30.164062 C 20.492188 30.292969 20.398438 30.46875 20.328125 30.933594 C 20.226562 31.691406 20.003906 32.160156 19.515625 32.640625 C 18.949219 33.207031 18.347656 33.453125 17.5 33.457031 C 16.9375 33.457031 16.59375 33.375 16.121094 33.128906 C 15.796875 32.960938 15.359375 32.585938 15.175781 32.3125 C 14.890625 31.898438 14.710938 31.40625 14.660156 30.890625 C 14.609375 30.394531 14.328125 30.09375 13.910156 30.09375 C 13.660156 30.09375 13.453125 30.21875 13.261719 30.484375 C 12.890625 31.003906 12.351562 31.414062 11.773438 31.605469 C 11.5 31.695312 11.410156 31.707031 10.917969 31.707031 C 10.4375 31.710938 10.332031 31.699219 10.101562 31.621094 C 9.566406 31.445312 9.140625 31.171875 8.800781 30.804688 C 8.511719 30.484375 8.347656 30.210938 8.203125 29.800781 C 8.105469 29.519531 8.085938 29.394531 8.070312 29.003906 C 8.050781 28.484375 8.117188 28.140625 8.328125 27.664062 C 8.523438 27.222656 8.457031 26.855469 8.140625 26.648438 C 7.898438 26.484375 7.648438 26.480469 7.308594 26.632812 C 6.820312 26.84375 6.476562 26.910156 5.957031 26.890625 C 5.597656 26.875 5.425781 26.847656 5.191406 26.773438 C 4.3125 26.484375 3.613281 25.757812 3.324219 24.824219 C 3.265625 24.644531 3.25 24.476562 3.253906 24.042969 C 3.253906 23.558594 3.265625 23.457031 3.355469 23.199219 C 3.550781 22.605469 3.949219 22.074219 4.476562 21.699219 C 4.777344 21.484375 4.882812 21.28125 4.859375 20.980469 C 4.828125 20.585938 4.585938 20.371094 4.117188 20.3125 C 3.394531 20.226562 2.839844 19.980469 2.382812 19.554688 C 1.878906 19.078125 1.609375 18.570312 1.496094 17.878906 C 1.351562 16.976562 1.644531 16.113281 2.320312 15.441406 C 2.808594 14.953125 3.34375 14.707031 4.117188 14.613281 C 4.476562 14.570312 4.675781 14.453125 4.792969 14.214844 C 4.964844 13.851562 4.847656 13.496094 4.476562 13.230469 C 3.960938 12.855469 3.566406 12.335938 3.359375 11.738281 C 3.261719 11.460938 3.253906 11.382812 3.25 10.882812 C 3.25 10.402344 3.261719 10.296875 3.339844 10.0625 C 3.507812 9.566406 3.71875 9.214844 4.070312 8.863281 C 4.636719 8.296875 5.160156 8.070312 5.957031 8.035156 C 6.476562 8.015625 6.820312 8.082031 7.300781 8.289062 C 7.613281 8.429688 7.820312 8.4375 8.054688 8.328125 C 8.273438 8.222656 8.414062 8.007812 8.4375 7.746094 C 8.449219 7.582031 8.433594 7.5 8.332031 7.269531 C 8.117188 6.785156 8.050781 6.441406 8.070312 5.921875 C 8.105469 5.125 8.335938 4.601562 8.902344 4.035156 C 9.152344 3.78125 9.300781 3.671875 9.566406 3.535156 C 10.101562 3.257812 10.273438 3.214844 10.917969 3.21875 C 11.417969 3.21875 11.496094 3.226562 11.773438 3.320312 C 12.367188 3.53125 12.890625 3.921875 13.265625 4.441406 C 13.476562 4.742188 13.683594 4.847656 13.980469 4.824219 C 14.375 4.789062 14.59375 4.550781 14.648438 4.082031 C 14.707031 3.621094 14.78125 3.359375 14.976562 2.96875 C 15.292969 2.324219 15.9375 1.78125 16.625 1.582031 C 17.140625 1.433594 17.753906 1.425781 18.28125 1.5625 Z M 18.28125 1.5625 "/>
<path style=" stroke:none;fill-rule:nonzero;fill:rgb(87.058824%,86.27451%,86.27451%);fill-opacity:1;" d="M 24.9375 12.003906 C 24.917969 12.011719 24.847656 12.027344 24.785156 12.042969 C 24.695312 12.0625 23.570312 13.164062 20.113281 16.617188 L 15.558594 21.171875 L 13.359375 18.976562 C 12.144531 17.757812 11.113281 16.761719 11.058594 16.738281 C 10.886719 16.679688 10.625 16.695312 10.460938 16.777344 C 10.164062 16.929688 10.015625 17.257812 10.089844 17.605469 C 10.125 17.777344 10.207031 17.867188 12.660156 20.320312 C 15.160156 22.820312 15.199219 22.855469 15.394531 22.902344 C 15.820312 23 15.414062 23.371094 20.8125 17.96875 C 24.789062 13.988281 25.679688 13.082031 25.714844 12.957031 C 25.816406 12.652344 25.683594 12.296875 25.40625 12.128906 C 25.253906 12.035156 25.019531 11.96875 24.9375 12.003906 Z M 24.9375 12.003906 "/>
</g>
</svg>
