<svg version="1.1" xmlns="http://www.w3.org/2000/svg" xmlns:xlink="http://www.w3.org/1999/xlink" width="860.000000pt" height="900.000000pt" viewBox="0,0,244.6125,256"><g fill="#2eaad1" fill-rule="nonzero" stroke="none" stroke-width="1" stroke-linecap="butt" stroke-linejoin="miter" stroke-miterlimit="10" stroke-dasharray="" stroke-dashoffset="0" font-family="none" font-weight="none" font-size="none" text-anchor="none" style="mix-blend-mode: normal"><g transform="translate(0.01886,2.84543) scale(0.28444,0.28444)"><g transform="translate(0,900) scale(0.1,-0.1)"><path d="M1229,8586c-100,-27 -182,-96 -244,-206l-36,-64l4,-561c4,-660 2,-642 99,-737c32,-32 82,-70 111,-85c48,-26 61,-28 162,-28c96,0 116,3 158,24c75,37 142,104 179,178l32,66l8,416c8,455 -1,698 -28,774c-22,64 -107,156 -176,189c-94,46 -184,57 -269,34z"></path><path d="M5483,8590c-97,-15 -224,-114 -266,-210c-25,-56 -35,-260 -36,-735c-1,-341 9,-474 38,-539c30,-67 95,-132 169,-168c62,-31 73,-33 172,-33c94,0 111,3 161,28c63,31 145,111 180,178l24,44l-1,596l-1,597l-46,70c-27,41 -66,86 -94,107c-76,55 -194,81 -300,65z"></path><path d="M300,6058c0,-821 3,-2023 7,-2671l6,-1177l1896,2l1896,3l6,525c3,289 7,526 7,528c1,1 26,2 55,2c86,0 89,2 125,98c18,48 32,90 32,95c0,4 -47,7 -105,7h-105v415v415h436h435l57,39c31,21 95,62 142,91c47,28 91,59 98,68c9,12 12,113 12,424v408h470h470v-195v-195h165h165v1305v1305h-238h-239l-6,-182c-10,-282 -37,-359 -169,-483c-223,-211 -542,-202 -748,22c-95,104 -139,214 -140,348c0,39 -3,121 -7,183l-6,112h-1574c-865,0 -1573,-3 -1573,-7c-1,-70 -23,-353 -31,-398c-6,-33 -27,-91 -47,-130c-163,-310 -595,-372 -843,-121c-105,105 -159,257 -159,447c0,31 -3,90 -6,132l-7,77h-238h-239zM1540,5950v-410h-450h-450v410v410h450h450zM2720,5950v-410h-500h-500v410v410h500h500zM3910,5950v-410h-500h-500v410v410h500h500zM5100,5950v-410h-490h-490v410v410h490h490zM6240,5950v-410h-470h-470v410v410h470h470zM1535,4915v-410h-445h-445l-3,413l-2,412l447,-2l448,-3zM2720,4915v-415l-497,2l-498,3l-3,413l-2,412h500h500zM3910,4915v-415h-500h-500v415v415h500h500zM5100,4915v-415h-490h-490v415v415h490h490zM1535,3885v-410h-445h-445l-3,413l-2,412l447,-2l448,-3zM2720,3885v-415l-497,2l-498,3l-3,413l-2,412h500h500zM3910,3885v-415h-500h-500v415v415h500h500zM1535,2910v-355l-447,-3l-448,-2v360v360l448,-2l447,-3zM2720,2910v-360h-500h-500v360v360h500h500zM3910,2910v-360h-500h-500v360v360h500h500z"></path><path d="M5809,4703c-1,-5 -4,-62 -8,-128l-6,-119l-151,-61c-398,-162 -694,-395 -923,-730c-230,-335 -335,-683 -335,-1110c0,-267 33,-459 119,-690c137,-371 433,-731 790,-965c168,-109 419,-213 632,-260c241,-54 639,-49 868,10c423,109 768,326 1043,655c408,488 553,1109 402,1723c-68,279 -183,514 -365,747c-71,90 -250,268 -340,336c-165,126 -367,236 -567,309l-118,43v124v123h-520c-286,0 -521,-3 -521,-7zM6640,4116c226,-52 405,-127 574,-240c279,-185 484,-447 612,-778c61,-157 74,-231 81,-463c9,-323 -13,-460 -113,-695c-82,-193 -180,-336 -344,-500c-222,-223 -487,-366 -810,-436c-69,-15 -128,-19 -310,-19c-208,0 -233,2 -335,27c-320,76 -576,223 -801,461c-309,326 -450,707 -430,1160c13,303 110,595 277,832c85,119 290,324 404,401c202,137 443,231 680,263c101,14 436,6 515,-13z"></path><path d="M6219,3977c-26,-14 -56,-42 -75,-69l-31,-45l-6,-183c-4,-101 -7,-459 -7,-797v-613h638c639,0 753,6 800,36c50,33 78,151 51,221c-13,35 -56,81 -89,96c-17,8 -181,13 -515,17l-490,5l-5,595l-5,595l-28,56c-24,50 -33,59 -86,83c-72,32 -96,32 -152,3z"></path></g></g></g></svg>