<?xml version="1.0" encoding="UTF-8"?>
<svg xmlns="http://www.w3.org/2000/svg" xmlns:xlink="http://www.w3.org/1999/xlink" width="55px" height="37px" viewBox="0 0 55 37" version="1.1">
<g id="surface1">
<path style=" stroke:none;fill-rule:nonzero;fill:rgb(87.058824%,86.27451%,86.27451%);fill-opacity:1;" d="M 26.695312 6.132812 C 25.859375 6.480469 25.367188 6.976562 25.128906 7.691406 C 25.074219 7.875 24.96875 8.015625 24.894531 8.015625 C 24.609375 8.015625 23.054688 8.90625 22.550781 9.355469 C 21.886719 9.949219 21.203125 10.96875 20.855469 11.886719 C 20.378906 13.101562 20.292969 13.941406 20.292969 17.144531 C 20.292969 19.464844 20.265625 20.105469 20.152344 20.449219 C 20.074219 20.679688 19.6875 21.28125 19.289062 21.777344 C 18.160156 23.21875 17.78125 24.167969 17.667969 25.875 C 17.609375 26.679688 17.628906 26.785156 17.78125 26.898438 C 17.921875 27.003906 18.53125 27.03125 20.589844 27.03125 L 23.214844 27.03125 L 23.273438 27.445312 C 23.367188 28.074219 23.8125 28.933594 24.363281 29.535156 C 24.96875 30.207031 25.925781 30.722656 26.867188 30.882812 C 28.980469 31.246094 31.226562 29.738281 31.703125 27.644531 L 31.835938 27.082031 L 34.472656 27.050781 C 36.367188 27.03125 37.144531 26.996094 37.25 26.917969 C 37.363281 26.824219 37.382812 26.601562 37.34375 25.789062 C 37.257812 24.167969 36.8125 23.066406 35.648438 21.664062 C 34.71875 20.535156 34.765625 20.773438 34.699219 16.808594 C 34.652344 13.578125 34.632812 13.273438 34.433594 12.605469 C 33.816406 10.53125 32.375 8.867188 30.613281 8.199219 C 30.109375 8.015625 30.023438 7.941406 29.871094 7.597656 C 29.464844 6.632812 28.695312 6.097656 27.652344 6.046875 C 27.265625 6.03125 26.855469 6.058594 26.695312 6.132812 Z M 28.242188 7.101562 C 28.648438 7.308594 28.914062 7.652344 29.09375 8.199219 L 29.253906 8.703125 L 29.984375 8.972656 C 31.835938 9.652344 33.066406 11.066406 33.578125 13.089844 C 33.761719 13.796875 33.789062 14.285156 33.84375 17.285156 C 33.910156 21.195312 33.855469 20.90625 34.964844 22.304688 C 35.914062 23.496094 36.414062 24.652344 36.414062 25.667969 L 36.414062 26.078125 L 18.585938 26.078125 L 18.585938 25.761719 C 18.585938 25.324219 18.910156 24.082031 19.148438 23.621094 C 19.242188 23.421875 19.628906 22.867188 20 22.398438 C 20.378906 21.921875 20.796875 21.300781 20.9375 21.011719 L 21.195312 20.488281 L 21.253906 17 C 21.308594 13.511719 21.328125 13.339844 21.699219 12.316406 C 22.277344 10.703125 23.699219 9.34375 25.300781 8.867188 C 25.765625 8.734375 25.824219 8.675781 25.964844 8.152344 C 26.105469 7.652344 26.410156 7.261719 26.78125 7.101562 C 27.167969 6.9375 27.917969 6.925781 28.242188 7.101562 Z M 30.839844 27.320312 C 30.714844 28.160156 29.863281 29.222656 28.941406 29.679688 C 28.46875 29.910156 28.289062 29.949219 27.546875 29.949219 C 26.808594 29.949219 26.621094 29.910156 26.105469 29.671875 C 25.738281 29.5 25.347656 29.222656 25.082031 28.933594 C 24.628906 28.4375 24.183594 27.617188 24.183594 27.242188 L 24.183594 27.03125 L 27.53125 27.050781 L 30.867188 27.082031 Z M 30.839844 27.320312 "/>
</g>
</svg>
