<?xml version="1.0" encoding="UTF-8"?>
<svg xmlns="http://www.w3.org/2000/svg" xmlns:xlink="http://www.w3.org/1999/xlink" width="35px" height="35px" viewBox="0 0 35 35" version="1.1">
<g id="surface1">
<path style=" stroke:none;fill-rule:nonzero;fill:rgb(87.058824%,86.27451%,86.27451%);fill-opacity:1;" d="M 7.324219 8.140625 C 6.375 8.265625 5.5625 8.90625 5.1875 9.816406 C 4.988281 10.3125 4.996094 9.988281 5.007812 17.636719 L 5.019531 24.691406 L 5.101562 24.941406 C 5.429688 25.914062 6.09375 26.539062 7.078125 26.804688 C 7.289062 26.863281 7.996094 26.871094 17.265625 26.878906 C 24.230469 26.886719 27.332031 26.878906 27.566406 26.851562 C 28.238281 26.777344 28.765625 26.523438 29.214844 26.070312 C 29.5 25.777344 29.667969 25.527344 29.808594 25.171875 C 30.011719 24.671875 30.003906 25.058594 29.992188 17.378906 L 29.980469 10.300781 L 29.902344 10.058594 C 29.757812 9.597656 29.546875 9.257812 29.195312 8.90625 C 28.839844 8.550781 28.492188 8.339844 28 8.199219 L 27.730469 8.121094 L 17.640625 8.117188 C 12.09375 8.113281 7.449219 8.125 7.324219 8.140625 Z M 27.660156 9.96875 C 27.839844 10.050781 28.019531 10.21875 28.117188 10.40625 C 28.183594 10.527344 28.195312 10.609375 28.195312 10.960938 L 28.195312 11.371094 L 22.847656 14.578125 L 17.503906 17.789062 L 12.152344 14.578125 L 6.804688 11.367188 L 6.804688 10.960938 C 6.804688 10.609375 6.816406 10.527344 6.882812 10.402344 C 7.015625 10.152344 7.242188 9.984375 7.535156 9.925781 C 7.601562 9.910156 12.128906 9.898438 17.589844 9.902344 C 27.066406 9.90625 27.523438 9.910156 27.660156 9.96875 Z M 11.972656 16.558594 C 14.796875 18.253906 17.148438 19.65625 17.203125 19.675781 C 17.347656 19.730469 17.683594 19.722656 17.824219 19.664062 C 17.890625 19.632812 20.226562 18.242188 23.015625 16.570312 C 25.804688 14.894531 28.113281 13.507812 28.148438 13.492188 C 28.214844 13.457031 28.214844 13.621094 28.207031 18.949219 L 28.195312 24.441406 L 28.117188 24.589844 C 28.023438 24.761719 27.832031 24.9375 27.652344 25.011719 C 27.542969 25.058594 26.324219 25.066406 17.484375 25.066406 L 7.445312 25.066406 L 7.269531 24.964844 C 7.066406 24.855469 6.878906 24.628906 6.820312 24.429688 C 6.777344 24.273438 6.769531 13.445312 6.8125 13.464844 C 6.828125 13.46875 9.148438 14.863281 11.972656 16.558594 Z M 11.972656 16.558594 "/>
</g>
</svg>
