<?xml version="1.0" encoding="UTF-8"?>
<svg xmlns="http://www.w3.org/2000/svg" xmlns:xlink="http://www.w3.org/1999/xlink" width="35px" height="35px" viewBox="0 0 35 35" version="1.1">
<g id="surface1">
<path style=" stroke:none;fill-rule:nonzero;fill:rgb(87.058824%,86.27451%,86.27451%);fill-opacity:1;" d="M 14.308594 7.128906 C 5.574219 12.550781 1.136719 15.335938 0.886719 15.539062 C 0.746094 15.664062 0.542969 16.035156 0.449219 16.347656 C 0.109375 17.484375 1.136719 18.667969 2.289062 18.480469 C 2.585938 18.433594 3.378906 18.03125 4.0625 17.609375 C 4.75 17.171875 5.339844 16.816406 5.371094 16.816406 C 5.417969 16.816406 5.449219 16.941406 5.449219 17.109375 C 5.449219 17.5 8.097656 28.351562 8.265625 28.679688 C 8.34375 28.820312 8.59375 29.082031 8.8125 29.253906 C 9.214844 29.582031 9.355469 29.582031 17.515625 29.582031 C 25.671875 29.582031 25.8125 29.582031 26.21875 29.253906 C 26.4375 29.082031 26.6875 28.820312 26.777344 28.664062 C 26.949219 28.320312 29.582031 17.515625 29.582031 17.109375 C 29.582031 16.941406 29.613281 16.816406 29.660156 16.816406 C 29.691406 16.816406 30.28125 17.171875 30.96875 17.609375 C 31.652344 18.03125 32.445312 18.433594 32.742188 18.480469 C 33.910156 18.667969 34.921875 17.5 34.578125 16.347656 C 34.484375 16.035156 34.285156 15.664062 34.144531 15.539062 C 33.894531 15.335938 28.773438 12.113281 20.722656 7.128906 C 18.777344 5.933594 17.875 5.449219 17.515625 5.449219 C 17.171875 5.449219 16.253906 5.933594 14.308594 7.128906 Z M 18.621094 12.128906 C 20.269531 12.875 20.753906 14.960938 19.570312 16.300781 C 18.449219 17.5625 16.675781 17.625 15.539062 16.410156 C 14.230469 15.007812 14.652344 12.9375 16.425781 12.128906 C 17.21875 11.753906 17.8125 11.769531 18.621094 12.128906 Z M 18.621094 12.128906 "/>
</g>
</svg>
