<svg version="1.1" xmlns="http://www.w3.org/2000/svg" xmlns:xlink="http://www.w3.org/1999/xlink" width="700.000000pt" height="700.000000pt" viewBox="0,0,256,256"><g fill="#dedcdc" fill-rule="nonzero" stroke="none" stroke-width="1" stroke-linecap="butt" stroke-linejoin="miter" stroke-miterlimit="10" stroke-dasharray="" stroke-dashoffset="0" font-family="none" font-weight="none" font-size="none" text-anchor="none" style="mix-blend-mode: normal"><g transform="translate(-0.01056,-0.01989) scale(0.36571,0.36571)"><g transform="translate(0,700) scale(0.1,-0.1)"><path d="M2985,4929c-231,-30 -481,-158 -638,-328c-207,-225 -313,-542 -278,-832c31,-257 127,-456 305,-635c145,-145 299,-232 501,-285c77,-20 113,-23 250,-23c139,1 173,4 258,27c91,24 235,87 319,139l37,23l465,-465c495,-496 498,-498 581,-485c80,12 138,71 150,150c13,82 9,86 -485,581l-465,465l23,37c52,84 112,223 138,317c24,87 27,120 28,255c1,166 -7,218 -55,358c-158,467 -639,763 -1134,701zM3250,4735c190,-28 330,-97 469,-229c114,-109 189,-234 238,-393c23,-77 26,-106 27,-228c0,-116 -3,-154 -22,-225c-82,-304 -318,-540 -622,-622c-71,-19 -109,-22 -225,-22c-122,1 -151,4 -228,27c-150,46 -256,107 -366,211c-422,402 -331,1097 180,1385c77,43 189,81 284,96c108,17 153,17 265,0z"></path></g></g></g></svg>