<svg version="1.1" xmlns="http://www.w3.org/2000/svg" xmlns:xlink="http://www.w3.org/1999/xlink" width="980.000000pt" height="980.000000pt" viewBox="0,0,256,256"><g fill="#dedcdc" fill-rule="nonzero" stroke="none" stroke-width="1" stroke-linecap="butt" stroke-linejoin="miter" stroke-miterlimit="10" stroke-dasharray="" stroke-dashoffset="0" font-family="none" font-weight="none" font-size="none" text-anchor="none" style="mix-blend-mode: normal"><g transform="translate(0,-0.03304) scale(0.26122,0.26122)"><g transform="translate(0,980) scale(0.1,-0.1)"><path d="M2051,7519c-266,-35 -494,-214 -598,-469c-56,-139 -54,-48 -51,-2190l3,-1975l24,-70c91,-272 277,-447 553,-522c59,-16 257,-18 2853,-21c1950,-2 2818,0 2884,8c188,21 335,92 461,219c80,82 127,152 167,251c56,140 54,32 51,2183l-3,1982l-22,67c-41,129 -100,225 -198,323c-100,100 -197,158 -335,198l-75,22l-2825,1c-1554,1 -2854,-2 -2889,-7zM7745,7007c50,-23 101,-70 128,-122c18,-34 22,-57 22,-155v-115l-1497,-898l-1497,-899l-1498,899l-1498,899v114c0,98 4,121 22,156c37,70 101,117 183,134c19,4 1286,7 2815,6c2654,-1 2782,-2 2820,-19zM3352,5162c791,-474 1450,-867 1465,-873c40,-15 134,-13 174,4c19,8 673,398 1453,866c781,469 1428,857 1438,862c18,10 18,-36 16,-1528l-3,-1538l-22,-41c-26,-49 -80,-98 -130,-119c-31,-13 -372,-15 -2847,-15h-2811l-50,28c-56,31 -109,95 -125,150c-12,44 -15,3076 -2,3070c4,-1 654,-391 1444,-866z"></path></g></g></g></svg>