<?xml version="1.0" encoding="UTF-8"?>
<svg xmlns="http://www.w3.org/2000/svg" xmlns:xlink="http://www.w3.org/1999/xlink" width="35px" height="40px" viewBox="0 0 35 39" version="1.1">
<g id="surface1">
<path style=" stroke:none;fill-rule:nonzero;fill:rgb(87.058824%,86.27451%,86.27451%);fill-opacity:1;" d="M 15.863281 0.0507812 C 14.78125 0.128906 13.289062 0.472656 12.152344 0.910156 C 8.742188 2.226562 6.640625 4.851562 5.539062 9.179688 C 5.195312 10.53125 4.996094 11.699219 4.5625 14.898438 C 3.933594 19.515625 3.652344 20.789062 2.90625 22.445312 C 2.535156 23.257812 2.113281 23.875 1.359375 24.703125 C 0.671875 25.457031 0.308594 26.042969 0.117188 26.714844 C -0.105469 27.511719 0.0117188 28.359375 0.457031 29.140625 C 0.6875 29.542969 1.3125 30.164062 1.824219 30.492188 C 3.554688 31.605469 6.164062 32.296875 10.285156 32.746094 C 10.84375 32.804688 11.3125 32.863281 11.328125 32.875 C 11.339844 32.886719 11.371094 33.121094 11.402344 33.398438 C 11.484375 34.328125 11.660156 34.976562 12.007812 35.683594 C 12.835938 37.363281 14.378906 38.523438 16.289062 38.902344 C 16.664062 38.972656 16.863281 38.988281 17.507812 38.984375 C 18.648438 38.980469 19.242188 38.835938 20.246094 38.328125 C 20.851562 38.019531 21.308594 37.6875 21.8125 37.167969 C 22.796875 36.167969 23.371094 34.925781 23.476562 33.589844 C 23.515625 33.101562 23.554688 32.972656 23.703125 32.898438 C 23.78125 32.855469 24.167969 32.800781 24.804688 32.734375 C 26.757812 32.546875 28.011719 32.332031 29.617188 31.921875 C 30.785156 31.621094 32 31.179688 32.691406 30.804688 C 33.644531 30.292969 34.542969 29.371094 34.847656 28.59375 C 34.933594 28.363281 34.953125 28.238281 34.96875 27.746094 C 34.996094 26.988281 34.953125 26.710938 34.714844 26.234375 C 34.464844 25.730469 34.179688 25.324219 33.65625 24.722656 C 32.628906 23.546875 32.1875 22.796875 31.699219 21.40625 C 31.207031 19.996094 30.949219 18.683594 30.453125 14.972656 C 29.820312 10.226562 29.476562 8.644531 28.628906 6.632812 C 27.503906 3.96875 25.492188 1.945312 22.988281 0.972656 C 22.082031 0.617188 20.804688 0.273438 19.921875 0.152344 C 19.03125 0.0234375 16.964844 -0.0273438 15.863281 0.0507812 Z M 19.414062 3.742188 C 20.433594 3.898438 21.34375 4.167969 22.089844 4.535156 C 24.300781 5.621094 25.527344 7.75 26.234375 11.707031 C 26.363281 12.457031 26.539062 13.632812 26.722656 15.03125 C 27.09375 17.90625 27.292969 19.152344 27.558594 20.339844 C 28.222656 23.3125 29.164062 25.257812 30.773438 27 C 31.015625 27.257812 31.203125 27.484375 31.1875 27.503906 C 31.144531 27.566406 30.421875 27.894531 29.988281 28.042969 C 28.140625 28.671875 24.371094 29.234375 21.304688 29.335938 C 18.949219 29.414062 13.925781 29.371094 12.234375 29.257812 C 10.226562 29.121094 7.613281 28.734375 6.042969 28.339844 C 5.058594 28.09375 3.929688 27.65625 3.902344 27.507812 C 3.898438 27.472656 4.105469 27.191406 4.363281 26.890625 C 5.613281 25.414062 6.277344 24.242188 6.875 22.472656 C 7.410156 20.875 7.761719 19.074219 8.214844 15.609375 C 8.667969 12.148438 8.9375 10.625 9.332031 9.3125 C 10.402344 5.71875 12.300781 4.128906 16.046875 3.691406 C 16.78125 3.605469 18.714844 3.632812 19.414062 3.742188 Z M 17.660156 33.066406 L 20.769531 33.089844 L 20.75 33.214844 C 20.625 33.960938 20.523438 34.257812 20.242188 34.722656 C 19.796875 35.457031 18.863281 36.113281 18.113281 36.222656 C 17.386719 36.324219 16.652344 36.25 16.160156 36.023438 C 15.308594 35.632812 14.679688 34.96875 14.367188 34.125 C 14.257812 33.839844 14.160156 33.34375 14.160156 33.089844 C 14.160156 32.992188 14.167969 32.992188 14.355469 33.015625 C 14.460938 33.027344 15.945312 33.050781 17.660156 33.066406 Z M 17.660156 33.066406 "/>
</g>
</svg>
