<svg version="1.1" xmlns="http://www.w3.org/2000/svg" xmlns:xlink="http://www.w3.org/1999/xlink" width="360.000000pt" height="360.000000pt" viewBox="0,0,256,256"><g fill="#3ba0e3" fill-rule="nonzero" stroke="none" stroke-width="1" stroke-linecap="butt" stroke-linejoin="miter" stroke-miterlimit="10" stroke-dasharray="" stroke-dashoffset="0" font-family="none" font-weight="none" font-size="none" text-anchor="none" style="mix-blend-mode: normal"><g transform="translate(-0.14889,-0.01747) scale(0.71111,0.71111)"><g transform="translate(0,360) scale(0.1,-0.1)"><path d="M641,3244c-190,-51 -353,-218 -402,-414c-11,-45 -14,-233 -14,-1040v-985l28,-78c35,-100 79,-167 154,-238c66,-63 153,-111 240,-134c86,-22 2220,-22 2306,0c130,34 260,128 333,242c53,81 84,189 91,307c6,117 -7,168 -50,200c-31,23 -84,26 -120,7c-42,-22 -56,-66 -60,-186c-5,-130 -23,-180 -91,-253c-52,-55 -111,-88 -186,-102c-72,-14 -2068,-14 -2140,0c-109,21 -206,96 -253,197l-22,48v985v985l22,48c47,101 144,176 253,197c72,14 2068,14 2140,0c109,-21 206,-96 253,-197c22,-48 22,-52 27,-735l5,-688l26,-26c55,-54 150,-39 183,31c15,32 17,94 14,707l-3,673l-28,78c-35,100 -79,167 -154,238c-66,63 -153,111 -240,134c-84,22 -2230,21 -2312,-1z"></path><path d="M1095,2301c-248,-41 -405,-182 -460,-414c-19,-79 -19,-232 0,-322c55,-263 268,-424 563,-425c194,0 446,95 483,183c15,36 20,311 6,360c-4,15 -22,36 -40,47c-29,18 -51,20 -223,20c-189,0 -191,0 -218,-25c-17,-16 -26,-34 -26,-55c0,-73 36,-90 191,-90h109v-94v-94l-50,-21c-189,-81 -385,-62 -481,46c-133,152 -129,483 8,620c64,64 123,87 228,87c117,1 169,-22 229,-102c73,-98 90,-112 136,-112c52,0 76,13 95,50c22,42 19,79 -11,138c-42,84 -132,150 -253,186c-65,19 -217,28 -286,17z"></path><path d="M1864,2296c-64,-28 -64,-30 -64,-573c0,-445 2,-491 18,-523c43,-87 175,-76 202,17c8,26 10,189 8,528c-3,538 -1,520 -64,550c-39,18 -59,18 -100,1z"></path><path d="M2212,2279c-20,-6 -40,-22 -52,-42c-19,-31 -20,-53 -20,-523v-491l23,-34c54,-81 181,-54 201,42c3,18 6,119 6,225v194h203c217,0 240,5 266,51c17,30 9,71 -19,99c-19,19 -34,20 -235,20h-215v145v145h243c262,0 282,4 305,53c11,22 11,35 2,63c-20,61 -39,64 -377,63c-164,0 -313,-5 -331,-10z"></path></g></g></g></svg>