<?xml version="1.0" encoding="UTF-8"?>
<svg xmlns="http://www.w3.org/2000/svg" xmlns:xlink="http://www.w3.org/1999/xlink" width="35px" height="35px" viewBox="0 0 35 35" version="1.1">
<g id="surface1">
<path style=" stroke:none;fill-rule:nonzero;fill:rgb(87.058824%,86.27451%,86.27451%);fill-opacity:1;" d="M 7.859375 3.066406 C 6.382812 3.300781 5.199219 4.367188 4.792969 5.839844 L 4.699219 6.171875 L 4.699219 28.832031 L 4.792969 29.171875 C 4.917969 29.632812 5.207031 30.199219 5.492188 30.558594 C 6.007812 31.195312 6.648438 31.613281 7.503906 31.871094 L 7.742188 31.941406 L 17.347656 31.953125 C 24.503906 31.957031 27.015625 31.953125 27.207031 31.921875 C 28.527344 31.71875 29.664062 30.765625 30.105469 29.496094 C 30.3125 28.894531 30.300781 29.742188 30.300781 17.519531 C 30.300781 6.859375 30.296875 6.292969 30.238281 6.023438 C 29.914062 4.515625 28.753906 3.378906 27.265625 3.09375 C 27.027344 3.050781 25.839844 3.042969 17.46875 3.046875 C 12.234375 3.050781 7.910156 3.054688 7.859375 3.066406 Z M 27.171875 3.949219 C 28.257812 4.203125 29.082031 5.003906 29.367188 6.085938 L 29.445312 6.375 L 29.445312 28.625 L 29.371094 28.917969 C 29.085938 29.988281 28.257812 30.796875 27.171875 31.054688 C 26.976562 31.097656 25.835938 31.105469 17.5 31.105469 C 8.210938 31.105469 8.046875 31.105469 7.769531 31.035156 C 6.742188 30.789062 5.933594 30.007812 5.632812 28.964844 L 5.554688 28.695312 L 5.554688 6.308594 L 5.632812 6.035156 C 5.929688 5.003906 6.738281 4.214844 7.75 3.964844 C 8.007812 3.902344 8.316406 3.902344 17.484375 3.902344 C 25.839844 3.898438 26.976562 3.902344 27.171875 3.949219 Z M 27.171875 3.949219 "/>
<path style=" stroke:none;fill-rule:nonzero;fill:rgb(87.058824%,86.27451%,86.27451%);fill-opacity:1;" d="M 9.398438 8.597656 C 8.707031 8.789062 8.183594 9.304688 7.976562 10 C 7.898438 10.273438 7.898438 10.785156 7.976562 11.058594 C 8.179688 11.75 8.714844 12.285156 9.386719 12.457031 C 9.652344 12.523438 10.238281 12.527344 10.492188 12.460938 C 11.058594 12.308594 11.546875 11.902344 11.792969 11.375 C 12.296875 10.296875 11.773438 9.050781 10.644531 8.640625 C 10.375 8.546875 9.683594 8.523438 9.398438 8.597656 Z M 10.519531 9.535156 C 10.910156 9.742188 11.117188 10.089844 11.121094 10.527344 C 11.125 10.753906 11.113281 10.816406 11.011719 11.011719 C 10.890625 11.261719 10.714844 11.4375 10.460938 11.558594 C 10.328125 11.628906 10.25 11.640625 9.945312 11.640625 C 9.636719 11.640625 9.5625 11.628906 9.417969 11.558594 C 9.089844 11.394531 8.855469 11.082031 8.785156 10.707031 C 8.683594 10.171875 9.042969 9.617188 9.605469 9.429688 C 9.652344 9.414062 9.828125 9.40625 9.996094 9.410156 C 10.269531 9.421875 10.328125 9.429688 10.519531 9.535156 Z M 10.519531 9.535156 "/>
<path style=" stroke:none;fill-rule:nonzero;fill:rgb(87.058824%,86.27451%,86.27451%);fill-opacity:1;" d="M 12.984375 10.058594 C 12.652344 10.28125 12.683594 10.800781 13.039062 10.972656 C 13.179688 11.039062 13.234375 11.039062 19.851562 11.035156 L 26.519531 11.023438 L 26.613281 10.953125 C 26.773438 10.832031 26.839844 10.710938 26.855469 10.519531 C 26.871094 10.308594 26.796875 10.160156 26.617188 10.050781 C 26.507812 9.980469 26.429688 9.980469 19.804688 9.980469 L 13.101562 9.980469 Z M 12.984375 10.058594 "/>
<path style=" stroke:none;fill-rule:nonzero;fill:rgb(87.058824%,86.27451%,86.27451%);fill-opacity:1;" d="M 9.417969 15.566406 C 8.730469 15.734375 8.1875 16.265625 7.976562 16.972656 C 7.898438 17.246094 7.898438 17.757812 7.976562 18.03125 C 8.160156 18.667969 8.625 19.160156 9.25 19.386719 C 9.527344 19.488281 10.152344 19.515625 10.457031 19.433594 C 11.203125 19.246094 11.789062 18.640625 11.945312 17.894531 C 12.011719 17.585938 12.011719 17.421875 11.941406 17.101562 C 11.875 16.773438 11.773438 16.546875 11.578125 16.285156 C 11.308594 15.933594 10.90625 15.667969 10.484375 15.570312 C 10.230469 15.507812 9.65625 15.507812 9.417969 15.566406 Z M 10.476562 16.476562 C 11.027344 16.742188 11.28125 17.414062 11.03125 17.953125 C 10.921875 18.1875 10.703125 18.417969 10.476562 18.53125 C 10.328125 18.601562 10.257812 18.613281 9.945312 18.613281 C 9.617188 18.613281 9.570312 18.601562 9.40625 18.515625 C 8.503906 18.039062 8.582031 16.769531 9.535156 16.425781 C 9.773438 16.34375 10.253906 16.367188 10.476562 16.476562 Z M 10.476562 16.476562 "/>
<path style=" stroke:none;fill-rule:nonzero;fill:rgb(87.058824%,86.27451%,86.27451%);fill-opacity:1;" d="M 13.140625 16.984375 C 12.980469 17.027344 12.886719 17.097656 12.8125 17.234375 C 12.679688 17.492188 12.753906 17.777344 13 17.957031 L 13.09375 18.03125 L 26.519531 18.03125 L 26.617188 17.957031 C 26.949219 17.710938 26.949219 17.292969 26.617188 17.042969 L 26.519531 16.972656 L 19.882812 16.964844 C 16.230469 16.964844 13.199219 16.972656 13.140625 16.984375 Z M 13.140625 16.984375 "/>
<path style=" stroke:none;fill-rule:nonzero;fill:rgb(87.058824%,86.27451%,86.27451%);fill-opacity:1;" d="M 9.347656 22.554688 C 8.6875 22.742188 8.175781 23.265625 7.976562 23.945312 C 7.898438 24.21875 7.898438 24.730469 7.976562 25.003906 C 8.183594 25.703125 8.714844 26.226562 9.417969 26.40625 C 9.675781 26.46875 10.214844 26.46875 10.476562 26.40625 C 11.203125 26.21875 11.792969 25.601562 11.949219 24.847656 C 12.089844 24.191406 11.824219 23.402344 11.316406 22.96875 C 11.113281 22.796875 10.761719 22.609375 10.507812 22.542969 C 10.234375 22.46875 9.617188 22.476562 9.347656 22.554688 Z M 10.152344 23.382812 C 10.550781 23.449219 10.863281 23.679688 11.023438 24.042969 C 11.140625 24.296875 11.160156 24.492188 11.09375 24.75 C 10.996094 25.136719 10.734375 25.425781 10.363281 25.570312 C 10.105469 25.667969 9.707031 25.648438 9.441406 25.53125 C 9.203125 25.429688 8.925781 25.128906 8.839844 24.882812 C 8.601562 24.21875 9.035156 23.5 9.738281 23.378906 C 9.824219 23.367188 9.902344 23.351562 9.910156 23.347656 C 9.921875 23.347656 10.027344 23.363281 10.152344 23.382812 Z M 10.152344 23.382812 "/>
<path style=" stroke:none;fill-rule:nonzero;fill:rgb(87.058824%,86.27451%,86.27451%);fill-opacity:1;" d="M 13.105469 23.964844 C 13.042969 23.980469 12.945312 24.050781 12.890625 24.113281 C 12.65625 24.382812 12.726562 24.773438 13.03125 24.945312 C 13.136719 25 13.550781 25.003906 19.808594 25.003906 L 26.472656 25.003906 L 26.589844 24.929688 C 26.742188 24.835938 26.863281 24.625 26.863281 24.457031 C 26.863281 24.292969 26.753906 24.09375 26.617188 24.007812 C 26.507812 23.945312 26.335938 23.945312 19.859375 23.9375 C 15.910156 23.933594 13.164062 23.945312 13.105469 23.964844 Z M 13.105469 23.964844 "/>
</g>
</svg>
