<?xml version="1.0" encoding="UTF-8"?>
<svg xmlns="http://www.w3.org/2000/svg" xmlns:xlink="http://www.w3.org/1999/xlink" width="35px" height="35px" viewBox="0 0 35 35" version="1.1">
<g id="surface1">
<path style=" stroke:none;fill-rule:nonzero;fill:rgb(87.058824%,86.27451%,86.27451%);fill-opacity:1;" d="M 9.039062 0.171875 C 8.421875 0.382812 8.074219 0.601562 7.617188 1.054688 C 7.15625 1.511719 6.945312 1.867188 6.734375 2.488281 L 6.5625 3 L 6.5625 34.601562 L 6.761719 34.800781 C 6.925781 34.960938 7.019531 35 7.257812 35 C 7.421875 35 7.636719 34.953125 7.726562 34.890625 C 7.820312 34.828125 10.054688 32.621094 12.703125 29.984375 L 17.5 25.191406 L 22.304688 29.984375 C 24.945312 32.621094 27.179688 34.828125 27.273438 34.890625 C 27.363281 34.953125 27.578125 35 27.742188 35 C 27.980469 35 28.074219 34.960938 28.238281 34.800781 L 28.4375 34.601562 L 28.4375 3 L 28.265625 2.488281 C 28.054688 1.867188 27.84375 1.511719 27.382812 1.054688 C 26.925781 0.59375 26.570312 0.382812 25.949219 0.171875 L 25.4375 0 L 17.484375 0 L 9.535156 0.0078125 Z M 25.546875 1.65625 C 26.070312 1.851562 26.585938 2.367188 26.78125 2.890625 L 26.933594 3.289062 L 26.933594 32.367188 L 22.511719 27.953125 C 20.070312 25.519531 18.007812 23.480469 17.910156 23.421875 C 17.691406 23.277344 17.308594 23.28125 17.082031 23.433594 C 16.988281 23.496094 14.921875 25.546875 12.488281 27.992188 L 8.074219 32.4375 L 8.066406 17.863281 L 8.066406 3.289062 L 8.21875 2.890625 C 8.40625 2.371094 8.929688 1.851562 9.433594 1.65625 C 9.808594 1.511719 9.859375 1.511719 17.480469 1.511719 L 25.148438 1.503906 Z M 25.546875 1.65625 "/>
</g>
</svg>
