<svg version="1.1" xmlns="http://www.w3.org/2000/svg" xmlns:xlink="http://www.w3.org/1999/xlink" width="512.000000pt" height="512.000000pt" viewBox="0,0,256,256"><g fill="#e6e4e4" fill-rule="nonzero" stroke="none" stroke-width="1" stroke-linecap="butt" stroke-linejoin="miter" stroke-miterlimit="10" stroke-dasharray="" stroke-dashoffset="0" font-family="none" font-weight="none" font-size="none" text-anchor="none" style="mix-blend-mode: normal"><g transform="translate(0.06911,-0.0282) scale(0.5,0.5)"><g transform="translate(0,512) scale(0.1,-0.1)"><path d="M3335,4624c-319,-71 -572,-261 -723,-544c-104,-194 -144,-457 -106,-682l7,-38h-39c-22,0 -96,7 -164,15c-650,80 -1245,366 -1713,824c-65,63 -143,146 -174,183c-32,37 -61,68 -65,68c-26,0 -110,-223 -132,-349c-68,-396 85,-782 408,-1029l29,-22l-49,6c-127,14 -267,55 -364,104c-22,11 -42,20 -46,20c-4,0 -4,-40 -1,-88c22,-312 174,-590 422,-775c96,-72 192,-121 304,-158l84,-27l-58,-12c-68,-14 -270,-18 -337,-7c-34,6 -48,5 -48,-3c0,-29 68,-171 122,-252c171,-261 463,-440 770,-473l68,-7l-45,-35c-195,-148 -496,-285 -770,-348c-177,-41 -469,-63 -627,-48c-49,5 -88,6 -88,2c0,-4 51,-36 113,-72c381,-220 755,-340 1215,-388c142,-15 589,-6 722,14c575,89 1030,284 1441,619c682,555 1108,1450 1109,2330v146l89,71c113,91 291,276 371,386c34,47 60,88 57,91c-2,3 -38,-8 -78,-24c-82,-33 -217,-75 -294,-92c-87,-20 -197,-38 -188,-31c4,4 34,26 65,50c73,55 182,170 231,244c42,62 111,204 122,249c7,27 4,26 -127,-40c-132,-67 -313,-134 -460,-170l-76,-20l-44,45c-98,100 -297,211 -453,253c-109,29 -376,37 -480,14z"></path></g></g></g></svg>